<svg xmlns="http://www.w3.org/2000/svg" viewBox="0 0 512 512">
  <path
    d="M488 448l-208-15V315.113a32 32 0 0116.829-28.175L384 240l87.171 46.938A32.001 32.001 0 01488 315.113z"
    fill="#6f6571"
  />
  <path d="M343.074 249.274h64V280h-64z" fill="#e3aa75" />
  <path
    d="M343.074 249.274c9.81 4.301 20.621 6.726 32 6.726s22.19-2.425 32-6.726V224h-64z"
    fill="#d29b6e"
  />
  <path d="M386.858 280h-23.567l-4.217 64h32z" fill="#8bb3ea" />
  <path
    d="M375.074 280l-32-32s-28.171 7.043-11.825 47.561c1.826 4.526 7.354 6.322 11.539 3.811zM375.074 280l32-32s28.171 7.043 11.825 47.561c-1.826 4.526-7.354 6.322-11.539 3.811z"
    fill="#5d5360"
  />
  <path
    d="M368.042 239.292c-35.346 0-58.708-27.945-58.708-63.292v-64H432v64c0 32.568-24.326 59.454-55.799 63.479-2.685.344-5.381-.187-8.159-.187z"
    fill="#f5b97d"
  />
  <path
    d="M320 176v-64h-16v64c0 35.346 28.654 64 64 64a67.44 67.44 0 008.2-.522C344.638 235.534 320 208.631 320 176z"
    fill="#e3aa75"
  />
  <circle cx="72" cy="104" fill="#6f6571" r="48" />
  <path
    d="M207.732 168c0-48.601-31.131-88-79.732-88-23.746 0-45.296 9.405-61.126 24.694 0 0-6.207 32.451-6.207 57.306 0 40 18.732 70 67.333 70s79.732-24 79.732-64z"
    fill="#5d5360"
  />
  <path
    d="M96 136c-10.747-6.691-22.227-16.314-29.126-31.306C50.316 120.696 40 143.155 40 168c0 39.785 38.986 63.72 87.227 63.976z"
    fill="#4b3f4e"
  />
  <path
    d="M152 280H96.667c-35.346 0-64 28.654-64 64v104H192V320c0-22.091-17.909-40-40-40z"
    fill="#c3ddff"
  />
  <path
    d="M96 280h-8c-35.346 0-64 28.654-64 64v104h16V344c0-26.51 21.49-48 48-48h8z"
    fill="#a4ccff"
  />
  <path
    d="M120 312c-17.673 0-32-14.327-32-32v-10.662l64 6.875V280c0 17.673-14.327 32-32 32z"
    fill="#b57f5f"
  />
  <path
    d="M88 269.338C99.722 276.082 113.266 280 127.732 280c8.46 0 16.608-1.342 24.268-3.788V240H88z"
    fill="#9f6e50"
  />
  <path
    d="M224 429.5H87.5c-8.837 0-16-7.163-16-16V344l8.5-16h144c8.837 0 16 7.163 16 16v80z"
    fill="#6f6571"
  />
  <path
    d="M80 328c-8.836 0-16 7.163-16 16v80c0 8.837 7.163 16 16 16h144c8.836 0 16-7.164 16-16H104c-13.255 0-24-10.745-24-24z"
    fill="#5d5360"
  />
  <path
    d="M392 64h-40c-29 0-48 17.909-48 40 0 8.836 7.164 16 16 16h80c8.73 0 16.154 6.987 16.002 15.716v16.287c0 8.835 7.162 15.998 15.998 15.998s16-7.164 16-16V120c0-30.928-25.072-56-56-56z"
    fill="#9f6e50"
  />
  <path
    d="M95.732 136c25.432 18.034 61.77 23.88 81.649 25.769 8.172.777 14.351 7.702 14.351 15.911V200c0 32.521-24.256 59.377-55.664 63.462-2.728.355-5.597.08-8.422.08C92.3 263.542 68 234.846 68 199.5c0-16.908 11.996-45.915 11.996-45.915s1.941-2.354 2.969-3.489z"
    fill="#cd916e"
  />
  <path
    d="M80 200v-46.412c-10.297 11.369-16 26.239-16 41.579V200c0 35.346 28.654 64 64 64 2.715 0 5.441-.21 8.068-.538C104.506 259.517 80 232.631 80 200z"
    fill="#b57f5f"
  />
  <circle cx="152" cy="384" fill="#857e87" r="16" />
  <path
    d="M504 456H8c-4.422 0-8-3.582-8-8s3.578-8 8-8h496c4.422 0 8 3.582 8 8s-3.578 8-8 8z"
    fill="#ecbd83"
  />
  <path
    d="M432 432.25H293.5c-8.837 0-16-7.163-16-16V344l10.5-16h144c8.837 0 16 7.163 16 16v80z"
    fill="#dad8db"
  />
  <path
    d="M288 328c-8.836 0-16 7.163-16 16v80c0 8.837 7.163 16 16 16h144c8.836 0 16-7.164 16-16H312c-13.255 0-24-10.745-24-24z"
    fill="#c8c5c9"
  />
  <circle cx="360" cy="384" fill="#fff" r="16" />
  <path
    d="M135.734 235.25c-6.867 0-13.539-1.367-19.281-3.957a8 8 0 01-4.016-10.578c1.82-4.023 6.547-5.828 10.578-4.008 7.406 3.328 18.023 3.332 25.438-.004 4.016-1.816 8.758-.016 10.578 4.016a7.998 7.998 0 01-4.016 10.578c-5.757 2.586-12.421 3.953-19.281 3.953z"
    fill="#fff"
  />
  <circle cx="112" cy="188" fill="#4b3f4e" r="8" />
  <circle cx="160" cy="188" fill="#4b3f4e" r="8" />
  <path
    d="M360 211.25c-6.859 0-13.523-1.367-19.281-3.953a8 8 0 01-4.016-10.578c1.82-4.023 6.555-5.813 10.578-4.016 7.406 3.336 18.031 3.336 25.438 0 4.023-1.809 8.758-.012 10.578 4.016a7.998 7.998 0 01-4.016 10.578c-5.758 2.586-12.422 3.953-19.281 3.953z"
    fill="#b67f5f"
  />
  <circle cx="336" cy="164" fill="#64505a" r="8" />
  <circle cx="384" cy="164" fill="#64505a" r="8" />
  <path
    d="M320 96c0-17.673 14.327-32 32-32h-24c-22.091 0-40 17.909-40 40 0 8.836 7.164 16 16 16h16z"
    fill="#785353"
  />
</svg>
